<?xml version="1.0" encoding="utf-8"?>
<!-- Generator: Adobe Illustrator 15.1.0, SVG Export Plug-In . SVG Version: 6.00 Build 0)  -->
<!DOCTYPE svg PUBLIC "-//W3C//DTD SVG 1.1//EN" "http://www.w3.org/Graphics/SVG/1.1/DTD/svg11.dtd">
<svg version="1.1" id="Layer_1" xmlns="http://www.w3.org/2000/svg" xmlns:xlink="http://www.w3.org/1999/xlink" x="0px" y="0px"
	 width="595.221px" height="842px" viewBox="0 0 595.221 842" enable-background="new 0 0 595.221 842" xml:space="preserve">
<g id="Рамка_общая">
	
		<rect x="56.693" y="14.173" fill="none" stroke="#000000" stroke-width="1.5" stroke-miterlimit="10" width="524.41" height="813.543"/>
</g>
<g id="ОУХ">
	<g>
		
			<line fill="none" stroke="#000000" stroke-width="1.5" stroke-miterlimit="10" x1="22.677" y1="756.851" x2="56.693" y2="756.851"/>
		
			<line fill="none" stroke="#000000" stroke-width="1.5" stroke-miterlimit="10" x1="56.693" y1="657.639" x2="22.677" y2="657.639"/>
		
			<line fill="none" stroke="#000000" stroke-width="1.5" stroke-miterlimit="10" x1="22.677" y1="586.772" x2="56.693" y2="586.772"/>
		
			<line fill="none" stroke="#000000" stroke-width="1.5" stroke-miterlimit="10" x1="56.693" y1="515.905" x2="22.677" y2="515.905"/>
		<polyline fill="none" stroke="#000000" stroke-width="1.5" stroke-miterlimit="10" points="36.85,416.693 36.85,827.717 
			56.693,827.717 22.677,827.717 22.677,416.693 56.693,416.693 		"/>
	</g>
</g>
<g id="Основной_текст">
	
		<line fill="none" stroke="#000000" stroke-width="1.5" stroke-miterlimit="10" x1="56.693" y1="813.543" x2="240.945" y2="813.543"/>
	<line fill="none" stroke="#000000" stroke-miterlimit="10" x1="56.693" y1="799.369" x2="240.945" y2="799.369"/>
	
		<line fill="none" stroke="#000000" stroke-width="1.5" stroke-miterlimit="10" x1="56.693" y1="785.197" x2="581.103" y2="785.197"/>
	
		<line fill="none" stroke="#000000" stroke-width="1.5" stroke-miterlimit="10" x1="552.757" y1="785.197" x2="552.757" y2="827.717"/>
	
		<line fill="none" stroke="#000000" stroke-width="1.5" stroke-miterlimit="10" x1="240.946" y1="785.197" x2="240.946" y2="827.717"/>
	
		<line fill="none" stroke="#000000" stroke-width="1.5" stroke-miterlimit="10" x1="212.599" y1="785.197" x2="212.599" y2="827.717"/>
	
		<line fill="none" stroke="#000000" stroke-width="1.5" stroke-miterlimit="10" x1="170.079" y1="785.197" x2="170.079" y2="827.717"/>
	
		<line fill="none" stroke="#000000" stroke-width="1.5" stroke-miterlimit="10" x1="104.882" y1="785.197" x2="104.882" y2="827.717"/>
	
		<line fill="none" stroke="#000000" stroke-width="1.5" stroke-miterlimit="10" x1="76.537" y1="785.197" x2="76.537" y2="827.717"/>
	
		<line fill="none" stroke="#000000" stroke-width="1.5" stroke-miterlimit="10" x1="552.757" y1="805.038" x2="581.103" y2="805.038"/>
</g>
</svg>
