<?xml version="1.0" encoding="utf-8"?>
<!-- Generator: Adobe Illustrator 15.1.0, SVG Export Plug-In . SVG Version: 6.00 Build 0)  -->
<!DOCTYPE svg PUBLIC "-//W3C//DTD SVG 1.1//EN" "http://www.w3.org/Graphics/SVG/1.1/DTD/svg11.dtd">
<svg version="1.1" id="Layer_1" xmlns="http://www.w3.org/2000/svg" xmlns:xlink="http://www.w3.org/1999/xlink" x="0px" y="0px"
	 width="842px" height="595.219px" viewBox="0 0 842 595.219" enable-background="new 0 0 842 595.219" xml:space="preserve">
<g id="Рамка_общая">
	
		<rect x="14.173" y="56.693" fill="none" stroke="#000000" stroke-width="1.5" stroke-miterlimit="10" width="813.543" height="524.41"/>
</g>
<g id="ОУХ">
	<line fill="none" stroke="#000000" stroke-width="1.5" stroke-miterlimit="10" x1="85.039" y1="22.677" x2="85.039" y2="56.693"/>
	
		<line fill="none" stroke="#000000" stroke-width="1.5" stroke-miterlimit="10" x1="184.251" y1="56.693" x2="184.251" y2="22.677"/>
	
		<line fill="none" stroke="#000000" stroke-width="1.5" stroke-miterlimit="10" x1="255.117" y1="22.677" x2="255.117" y2="56.693"/>
	
		<line fill="none" stroke="#000000" stroke-width="1.5" stroke-miterlimit="10" x1="325.984" y1="56.693" x2="325.984" y2="22.677"/>
	<polyline fill="none" stroke="#000000" stroke-width="1.5" stroke-miterlimit="10" points="425.197,36.85 14.173,36.85 
		14.173,56.693 14.173,22.677 425.197,22.677 425.197,56.693 	"/>
</g>
<g id="_x31_й_лист">
	<line fill="none" stroke="#000000" stroke-miterlimit="10" x1="28.347" y1="56.693" x2="28.347" y2="240.945"/>
	<line fill="none" stroke="#000000" stroke-miterlimit="10" x1="42.52" y1="56.693" x2="42.52" y2="240.945"/>
	<line fill="none" stroke="#000000" stroke-miterlimit="10" x1="56.692" y1="56.693" x2="56.692" y2="240.945"/>
	<line fill="none" stroke="#000000" stroke-miterlimit="10" x1="70.865" y1="56.693" x2="70.865" y2="240.945"/>
	<line fill="none" stroke="#000000" stroke-width="1.5" stroke-miterlimit="10" x1="85.039" y1="56.693" x2="85.039" y2="581.103"/>
	<line fill="none" stroke="#000000" stroke-width="1.5" stroke-miterlimit="10" x1="99.213" y1="56.693" x2="99.213" y2="240.945"/>
	<line fill="none" stroke="#000000" stroke-miterlimit="10" x1="113.386" y1="56.693" x2="113.386" y2="240.945"/>
	
		<line fill="none" stroke="#000000" stroke-width="1.5" stroke-miterlimit="10" x1="85.039" y1="524.409" x2="56.692" y2="524.409"/>
	
		<line fill="none" stroke="#000000" stroke-width="1.5" stroke-miterlimit="10" x1="85.039" y1="481.889" x2="56.692" y2="481.889"/>
	<line fill="none" stroke="#000000" stroke-miterlimit="10" x1="70.865" y1="467.717" x2="56.693" y2="467.717"/>
	<line fill="none" stroke="#000000" stroke-miterlimit="10" x1="70.865" y1="453.543" x2="56.693" y2="453.543"/>
	<line fill="none" stroke="#000000" stroke-width="1.5" stroke-miterlimit="10" x1="85.039" y1="439.37" x2="14.173" y2="439.37"/>
	
		<line fill="none" stroke="#000000" stroke-width="1.5" stroke-miterlimit="10" x1="127.559" y1="240.946" x2="14.173" y2="240.946"/>
	
		<line fill="none" stroke="#000000" stroke-width="1.5" stroke-miterlimit="10" x1="127.559" y1="212.599" x2="14.173" y2="212.599"/>
	
		<line fill="none" stroke="#000000" stroke-width="1.5" stroke-miterlimit="10" x1="127.559" y1="170.079" x2="14.173" y2="170.079"/>
	
		<line fill="none" stroke="#000000" stroke-width="1.5" stroke-miterlimit="10" x1="127.559" y1="104.882" x2="14.173" y2="104.882"/>
	<line fill="none" stroke="#000000" stroke-width="1.5" stroke-miterlimit="10" x1="127.559" y1="76.537" x2="85.039" y2="76.537"/>
	
		<line fill="none" stroke="#000000" stroke-width="1.5" stroke-miterlimit="10" x1="127.559" y1="56.693" x2="127.559" y2="581.103"/>
	<line fill="none" stroke="#000000" stroke-width="1.5" stroke-miterlimit="10" x1="56.692" y1="439.37" x2="56.692" y2="581.103"/>
	<line fill="none" stroke="#000000" stroke-width="1.5" stroke-miterlimit="10" x1="70.865" y1="439.37" x2="70.865" y2="581.103"/>
</g>
</svg>
