<?xml version="1.0" encoding="utf-8"?>
<!-- Generator: Adobe Illustrator 15.1.0, SVG Export Plug-In . SVG Version: 6.00 Build 0)  -->
<!DOCTYPE svg PUBLIC "-//W3C//DTD SVG 1.1//EN" "http://www.w3.org/Graphics/SVG/1.1/DTD/svg11.dtd">
<svg version="1.1" id="Layer_1" xmlns="http://www.w3.org/2000/svg" xmlns:xlink="http://www.w3.org/1999/xlink" x="0px" y="0px"
	 width="1190.551px" height="841.891px" viewBox="0 0 1190.551 841.891" enable-background="new 0 0 1190.551 841.891"
	 xml:space="preserve">
<g id="Рамка_общая">
	
		<rect x="56.693" y="14.173" fill="none" stroke="#000000" stroke-width="1.5" stroke-miterlimit="10" width="1119.686" height="813.544"/>
</g>
<g id="ОУХ">
	<g>
		
			<line fill="none" stroke="#000000" stroke-width="1.5" stroke-miterlimit="10" x1="22.678" y1="756.851" x2="56.693" y2="756.851"/>
		
			<line fill="none" stroke="#000000" stroke-width="1.5" stroke-miterlimit="10" x1="56.693" y1="657.638" x2="22.678" y2="657.638"/>
		
			<line fill="none" stroke="#000000" stroke-width="1.5" stroke-miterlimit="10" x1="22.678" y1="586.773" x2="56.693" y2="586.773"/>
		
			<line fill="none" stroke="#000000" stroke-width="1.5" stroke-miterlimit="10" x1="56.693" y1="515.906" x2="22.678" y2="515.906"/>
		<polyline fill="none" stroke="#000000" stroke-width="1.5" stroke-miterlimit="10" points="36.85,416.693 36.85,827.717 
			56.693,827.717 22.678,827.717 22.678,416.693 56.693,416.693 		"/>
	</g>
</g>
<g id="_x31_й_лист">
	<polyline fill="none" stroke="#000000" stroke-width="1.5" stroke-miterlimit="10" points="651.969,827.718 651.969,714.331 
		1176.38,714.331 	"/>
	<line fill="none" stroke="#000000" stroke-miterlimit="10" x1="651.969" y1="813.544" x2="836.222" y2="813.544"/>
	<line fill="none" stroke="#000000" stroke-miterlimit="10" x1="651.969" y1="799.37" x2="836.222" y2="799.37"/>
	<line fill="none" stroke="#000000" stroke-miterlimit="10" x1="651.969" y1="785.198" x2="836.222" y2="785.198"/>
	<line fill="none" stroke="#000000" stroke-miterlimit="10" x1="651.969" y1="771.024" x2="836.222" y2="771.024"/>
	
		<line fill="none" stroke="#000000" stroke-width="1.5" stroke-miterlimit="10" x1="651.969" y1="756.85" x2="1176.38" y2="756.85"/>
	
		<line fill="none" stroke="#000000" stroke-width="1.5" stroke-miterlimit="10" x1="651.969" y1="742.677" x2="836.222" y2="742.677"/>
	<line fill="none" stroke="#000000" stroke-miterlimit="10" x1="651.969" y1="728.505" x2="836.222" y2="728.505"/>
	
		<line fill="none" stroke="#000000" stroke-width="1.5" stroke-miterlimit="10" x1="1119.686" y1="756.85" x2="1119.686" y2="785.198"/>
	
		<line fill="none" stroke="#000000" stroke-width="1.5" stroke-miterlimit="10" x1="1077.167" y1="756.85" x2="1077.167" y2="785.198"/>
	<line fill="none" stroke="#000000" stroke-miterlimit="10" x1="1062.994" y1="771.024" x2="1062.994" y2="785.196"/>
	<line fill="none" stroke="#000000" stroke-miterlimit="10" x1="1048.82" y1="771.024" x2="1048.82" y2="785.196"/>
	
		<line fill="none" stroke="#000000" stroke-width="1.5" stroke-miterlimit="10" x1="1034.647" y1="756.85" x2="1034.647" y2="827.718"/>
	
		<line fill="none" stroke="#000000" stroke-width="1.5" stroke-miterlimit="10" x1="836.222" y1="714.331" x2="836.222" y2="827.718"/>
	
		<line fill="none" stroke="#000000" stroke-width="1.5" stroke-miterlimit="10" x1="807.876" y1="714.331" x2="807.876" y2="827.718"/>
	
		<line fill="none" stroke="#000000" stroke-width="1.5" stroke-miterlimit="10" x1="765.356" y1="714.331" x2="765.356" y2="827.718"/>
	
		<line fill="none" stroke="#000000" stroke-width="1.5" stroke-miterlimit="10" x1="700.159" y1="714.331" x2="700.159" y2="827.718"/>
	
		<line fill="none" stroke="#000000" stroke-width="1.5" stroke-miterlimit="10" x1="671.812" y1="714.331" x2="671.812" y2="756.85"/>
	
		<line fill="none" stroke="#000000" stroke-width="1.5" stroke-miterlimit="10" x1="1034.647" y1="785.198" x2="1176.38" y2="785.198"/>
	
		<line fill="none" stroke="#000000" stroke-width="1.5" stroke-miterlimit="10" x1="1034.647" y1="771.024" x2="1176.38" y2="771.024"/>
</g>
</svg>
